<?xml version="1.0" standalone="no"?>
<svg viewBox="0 0 200 200" xmlns="http://www.w3.org/2000/svg">
  <path fill="#FF0066" d="M35.3,-59.5C41.9,-50.7,40.6,-34.3,47.4,-21.1C54.2,-7.9,69,2.1,71.2,12.6C73.3,23.1,62.8,34.2,51.1,40.1C39.5,45.9,26.7,46.6,14.1,52.1C1.6,57.6,-10.7,68,-23.2,69C-35.7,69.9,-48.4,61.4,-54.8,49.8C-61.3,38.2,-61.5,23.6,-65.2,8.4C-69,-6.8,-76.2,-22.4,-69.5,-29.5C-62.8,-36.6,-42.3,-35.2,-28.4,-40.6C-14.5,-45.9,-7.2,-58.1,3.6,-63.6C14.4,-69.2,28.8,-68.2,35.3,-59.5Z" transform="translate(100 100)" />
</svg>
